<svg xmlns="http://www.w3.org/2000/svg" viewBox="0 0 200 200" width="200" height="200"><defs><linearGradient id="g" x1="0" y1="0" x2="1" y2="1"><stop offset="0%" stop-color="#F6D98A"/><stop offset="38%" stop-color="#D9AE52"/><stop offset="62%" stop-color="#B98B2E"/><stop offset="100%" stop-color="#EBC978"/></linearGradient></defs><rect width="200" height="200" rx="44" fill="#0B1030"/><g transform="scale(0.84) translate(19 19)"><path d="M100.00,6.00L109.95,75.98L100,100L90.05,75.98ZM145.25,54.75L124.02,90.05L100,100L109.95,75.98ZM194.00,100.00L124.02,109.95L100,100L124.02,90.05ZM145.25,145.25L109.95,124.02L100,100L124.02,109.95ZM100.00,194.00L90.05,124.02L100,100L109.95,124.02ZM54.75,145.25L75.98,109.95L100,100L90.05,124.02ZM6.00,100.00L75.98,90.05L100,100L75.98,109.95ZM54.75,54.75L90.05,75.98L100,100L75.98,90.05Z" fill="url(#g)"/><path d="M100.00,48.00L105.36,87.07L100,100L94.64,87.07ZM125.46,74.54L112.93,94.64L100,100L105.36,87.07ZM152.00,100.00L112.93,105.36L100,100L112.93,94.64ZM125.46,125.46L105.36,112.93L100,100L112.93,105.36ZM100.00,152.00L94.64,112.93L100,100L105.36,112.93ZM74.54,125.46L87.07,105.36L100,100L94.64,112.93ZM48.00,100.00L87.07,94.64L100,100L87.07,105.36ZM74.54,74.54L94.64,87.07L100,100L87.07,94.64Z" fill="none" stroke="#0B1030" stroke-width="1.6" opacity="0.45"/></g></svg>